<mxfile host="app.diagrams.net" modified="2024-03-25T19:13:21.074Z" agent="Mozilla/5.0 (Windows NT 10.0; Win64; x64) AppleWebKit/537.36 (KHTML, like Gecko) Chrome/123.0.0.0 Safari/537.36" etag="_A9-cdk63Hkk5pSGqlQD" version="24.1.0" type="device">
  <diagram name="Page-1" id="QSWFzI9H8QxoD98xziro">
    <mxGraphModel dx="1195" dy="643" grid="1" gridSize="10" guides="1" tooltips="1" connect="1" arrows="1" fold="1" page="1" pageScale="1" pageWidth="850" pageHeight="1100" math="0" shadow="0">
      <root>
        <mxCell id="0" />
        <mxCell id="1" parent="0" />
        <mxCell id="6kd7-zX1zpFKHx_h584w-1" value="&lt;font style=&quot;font-size: 16px;&quot;&gt;&lt;b&gt;Lietotājs&lt;/b&gt;&lt;/font&gt;" style="rounded=0;whiteSpace=wrap;html=1;strokeWidth=2;" vertex="1" parent="1">
          <mxGeometry x="120" y="120" width="120" height="60" as="geometry" />
        </mxCell>
        <mxCell id="6kd7-zX1zpFKHx_h584w-2" value="&lt;font style=&quot;font-size: 16px;&quot;&gt;&lt;b&gt;Ātrā atmiņa&lt;/b&gt;&lt;/font&gt;" style="rounded=0;whiteSpace=wrap;html=1;strokeColor=default;strokeWidth=2;align=center;verticalAlign=middle;fontFamily=Helvetica;fontSize=12;fontColor=default;fillColor=default;" vertex="1" parent="1">
          <mxGeometry x="360" y="120" width="120" height="60" as="geometry" />
        </mxCell>
        <mxCell id="6kd7-zX1zpFKHx_h584w-3" value="&lt;font style=&quot;font-size: 16px;&quot;&gt;&lt;b&gt;Datu glabātive&lt;/b&gt;&lt;/font&gt;" style="rounded=0;whiteSpace=wrap;html=1;strokeColor=default;strokeWidth=2;align=center;verticalAlign=middle;fontFamily=Helvetica;fontSize=12;fontColor=default;fillColor=default;" vertex="1" parent="1">
          <mxGeometry x="600" y="120" width="120" height="60" as="geometry" />
        </mxCell>
        <mxCell id="6kd7-zX1zpFKHx_h584w-4" value="" style="endArrow=none;dashed=1;html=1;rounded=0;fontFamily=Helvetica;fontSize=12;fontColor=default;entryX=0.5;entryY=1;entryDx=0;entryDy=0;strokeWidth=1;" edge="1" parent="1" target="6kd7-zX1zpFKHx_h584w-1">
          <mxGeometry width="50" height="50" relative="1" as="geometry">
            <mxPoint x="180" y="640" as="sourcePoint" />
            <mxPoint x="340" y="350" as="targetPoint" />
          </mxGeometry>
        </mxCell>
        <mxCell id="6kd7-zX1zpFKHx_h584w-5" value="" style="endArrow=none;dashed=1;html=1;rounded=0;fontFamily=Helvetica;fontSize=12;fontColor=default;entryX=0.5;entryY=1;entryDx=0;entryDy=0;" edge="1" parent="1" source="6kd7-zX1zpFKHx_h584w-17">
          <mxGeometry width="50" height="50" relative="1" as="geometry">
            <mxPoint x="419.5" y="580" as="sourcePoint" />
            <mxPoint x="419.5" y="180" as="targetPoint" />
          </mxGeometry>
        </mxCell>
        <mxCell id="6kd7-zX1zpFKHx_h584w-6" value="" style="endArrow=none;dashed=1;html=1;rounded=0;fontFamily=Helvetica;fontSize=12;fontColor=default;entryX=0.5;entryY=1;entryDx=0;entryDy=0;" edge="1" parent="1">
          <mxGeometry width="50" height="50" relative="1" as="geometry">
            <mxPoint x="660" y="640" as="sourcePoint" />
            <mxPoint x="659.5" y="180" as="targetPoint" />
          </mxGeometry>
        </mxCell>
        <mxCell id="6kd7-zX1zpFKHx_h584w-7" value="" style="endArrow=classic;html=1;rounded=0;fontFamily=Helvetica;fontSize=12;fontColor=default;strokeWidth=2;" edge="1" parent="1">
          <mxGeometry width="50" height="50" relative="1" as="geometry">
            <mxPoint x="190" y="320" as="sourcePoint" />
            <mxPoint x="402.5" y="320" as="targetPoint" />
          </mxGeometry>
        </mxCell>
        <mxCell id="6kd7-zX1zpFKHx_h584w-9" value="" style="endArrow=classic;html=1;rounded=0;fontFamily=Helvetica;fontSize=12;fontColor=default;strokeWidth=2;" edge="1" parent="1">
          <mxGeometry width="50" height="50" relative="1" as="geometry">
            <mxPoint x="640" y="240" as="sourcePoint" />
            <mxPoint x="440" y="240" as="targetPoint" />
          </mxGeometry>
        </mxCell>
        <mxCell id="6kd7-zX1zpFKHx_h584w-11" value="&lt;font style=&quot;font-size: 14px;&quot;&gt;&lt;b&gt;1. Visi līmeņu nosaukumi&lt;/b&gt;&lt;/font&gt;" style="text;html=1;align=center;verticalAlign=middle;resizable=0;points=[];autosize=1;strokeColor=none;fillColor=none;fontFamily=Helvetica;fontSize=12;fontColor=default;" vertex="1" parent="1">
          <mxGeometry x="445" y="208" width="190" height="30" as="geometry" />
        </mxCell>
        <mxCell id="6kd7-zX1zpFKHx_h584w-12" value="&lt;span style=&quot;font-size: 14px;&quot;&gt;&lt;b&gt;3&lt;/b&gt;&lt;/span&gt;&lt;b style=&quot;font-size: 14px; background-color: initial;&quot;&gt;. Izvēlētais līmenis&lt;/b&gt;" style="text;html=1;align=center;verticalAlign=middle;resizable=0;points=[];autosize=1;strokeColor=none;fillColor=none;fontFamily=Helvetica;fontSize=12;fontColor=default;" vertex="1" parent="1">
          <mxGeometry x="220" y="290" width="150" height="30" as="geometry" />
        </mxCell>
        <mxCell id="6kd7-zX1zpFKHx_h584w-14" value="" style="endArrow=classic;html=1;rounded=0;fontFamily=Helvetica;fontSize=12;fontColor=default;strokeWidth=2;" edge="1" parent="1">
          <mxGeometry width="50" height="50" relative="1" as="geometry">
            <mxPoint x="638.75" y="360" as="sourcePoint" />
            <mxPoint x="441.25" y="360" as="targetPoint" />
          </mxGeometry>
        </mxCell>
        <mxCell id="6kd7-zX1zpFKHx_h584w-18" value="" style="endArrow=none;dashed=1;html=1;rounded=0;fontFamily=Helvetica;fontSize=12;fontColor=default;entryX=0.5;entryY=1;entryDx=0;entryDy=0;" edge="1" parent="1" source="6kd7-zX1zpFKHx_h584w-34" target="6kd7-zX1zpFKHx_h584w-17">
          <mxGeometry width="50" height="50" relative="1" as="geometry">
            <mxPoint x="419.5" y="580" as="sourcePoint" />
            <mxPoint x="419.5" y="180" as="targetPoint" />
          </mxGeometry>
        </mxCell>
        <mxCell id="6kd7-zX1zpFKHx_h584w-17" value="" style="rounded=1;whiteSpace=wrap;html=1;strokeColor=default;strokeWidth=2;align=center;verticalAlign=middle;fontFamily=Helvetica;fontSize=12;fontColor=default;fillColor=default;" vertex="1" parent="1">
          <mxGeometry x="402.5" y="238" width="35" height="45" as="geometry" />
        </mxCell>
        <mxCell id="6kd7-zX1zpFKHx_h584w-19" value="&lt;b&gt;&lt;font style=&quot;font-size: 14px;&quot;&gt;4.&amp;nbsp;&lt;/font&gt;&lt;/b&gt;&lt;b style=&quot;background-color: initial;&quot;&gt;&lt;font style=&quot;font-size: 14px;&quot;&gt;noteiktā līmeņa grūtības dati&lt;/font&gt;&lt;/b&gt;" style="text;html=1;align=center;verticalAlign=middle;resizable=0;points=[];autosize=1;strokeColor=none;fillColor=none;fontFamily=Helvetica;fontSize=12;fontColor=default;" vertex="1" parent="1">
          <mxGeometry x="425" y="328" width="230" height="30" as="geometry" />
        </mxCell>
        <mxCell id="6kd7-zX1zpFKHx_h584w-21" value="" style="endArrow=classic;html=1;rounded=0;strokeColor=default;strokeWidth=2;align=center;verticalAlign=middle;fontFamily=Helvetica;fontSize=12;fontColor=default;labelBackgroundColor=default;" edge="1" parent="1">
          <mxGeometry width="50" height="50" relative="1" as="geometry">
            <mxPoint x="640" y="400" as="sourcePoint" />
            <mxPoint x="440" y="400" as="targetPoint" />
          </mxGeometry>
        </mxCell>
        <mxCell id="6kd7-zX1zpFKHx_h584w-22" value="&lt;font style=&quot;font-size: 14px;&quot;&gt;&lt;b&gt;5. Iepriekšējo mēģinājumu punkti&lt;/b&gt;&lt;/font&gt;" style="text;html=1;align=center;verticalAlign=middle;resizable=0;points=[];autosize=1;strokeColor=none;fillColor=none;fontFamily=Helvetica;fontSize=12;fontColor=default;labelBackgroundColor=default;" vertex="1" parent="1">
          <mxGeometry x="420" y="368" width="240" height="30" as="geometry" />
        </mxCell>
        <mxCell id="6kd7-zX1zpFKHx_h584w-25" value="" style="endArrow=classic;html=1;rounded=0;strokeColor=default;strokeWidth=2;align=center;verticalAlign=middle;fontFamily=Helvetica;fontSize=12;fontColor=default;labelBackgroundColor=default;" edge="1" parent="1">
          <mxGeometry width="50" height="50" relative="1" as="geometry">
            <mxPoint x="200" y="492" as="sourcePoint" />
            <mxPoint x="400" y="492" as="targetPoint" />
          </mxGeometry>
        </mxCell>
        <mxCell id="6kd7-zX1zpFKHx_h584w-26" value="&lt;font style=&quot;font-size: 14px;&quot;&gt;&lt;b&gt;7. Izvēlētā līmeņa iestatījumi&lt;/b&gt;&lt;/font&gt;" style="text;html=1;align=center;verticalAlign=middle;resizable=0;points=[];autosize=1;strokeColor=none;fillColor=none;fontFamily=Helvetica;fontSize=12;fontColor=default;labelBackgroundColor=default;" vertex="1" parent="1">
          <mxGeometry x="192.5" y="460" width="210" height="30" as="geometry" />
        </mxCell>
        <mxCell id="6kd7-zX1zpFKHx_h584w-27" value="" style="endArrow=none;dashed=1;html=1;rounded=0;fontFamily=Helvetica;fontSize=12;fontColor=default;entryX=0.5;entryY=1;entryDx=0;entryDy=0;" edge="1" parent="1" target="6kd7-zX1zpFKHx_h584w-24">
          <mxGeometry width="50" height="50" relative="1" as="geometry">
            <mxPoint x="420" y="640" as="sourcePoint" />
            <mxPoint x="420" y="353" as="targetPoint" />
          </mxGeometry>
        </mxCell>
        <mxCell id="6kd7-zX1zpFKHx_h584w-24" value="" style="rounded=1;whiteSpace=wrap;html=1;strokeColor=default;strokeWidth=2;align=center;verticalAlign=middle;fontFamily=Helvetica;fontSize=12;fontColor=default;fillColor=default;" vertex="1" parent="1">
          <mxGeometry x="402.5" y="540" width="35" height="45" as="geometry" />
        </mxCell>
        <mxCell id="6kd7-zX1zpFKHx_h584w-28" value="" style="endArrow=classic;html=1;rounded=0;strokeColor=default;strokeWidth=2;align=center;verticalAlign=middle;fontFamily=Helvetica;fontSize=12;fontColor=default;labelBackgroundColor=default;" edge="1" parent="1">
          <mxGeometry width="50" height="50" relative="1" as="geometry">
            <mxPoint x="640" y="520" as="sourcePoint" />
            <mxPoint x="440" y="520" as="targetPoint" />
          </mxGeometry>
        </mxCell>
        <mxCell id="6kd7-zX1zpFKHx_h584w-29" value="&lt;font style=&quot;font-size: 14px;&quot;&gt;&lt;b&gt;8.&amp;nbsp;&lt;/b&gt;&lt;/font&gt;&lt;b style=&quot;font-size: 14px;&quot;&gt;Līmeņa ainas dati&lt;/b&gt;" style="text;html=1;align=center;verticalAlign=middle;resizable=0;points=[];autosize=1;strokeColor=none;fillColor=none;fontFamily=Helvetica;fontSize=12;fontColor=default;labelBackgroundColor=default;" vertex="1" parent="1">
          <mxGeometry x="460" y="490" width="160" height="30" as="geometry" />
        </mxCell>
        <mxCell id="6kd7-zX1zpFKHx_h584w-30" value="" style="edgeStyle=none;orthogonalLoop=1;jettySize=auto;html=1;rounded=0;strokeColor=default;strokeWidth=2;align=center;verticalAlign=middle;fontFamily=Helvetica;fontSize=12;fontColor=default;labelBackgroundColor=default;endArrow=classic;" edge="1" parent="1">
          <mxGeometry width="100" relative="1" as="geometry">
            <mxPoint x="410" y="440" as="sourcePoint" />
            <mxPoint x="200" y="440" as="targetPoint" />
            <Array as="points" />
          </mxGeometry>
        </mxCell>
        <mxCell id="6kd7-zX1zpFKHx_h584w-31" value="" style="endArrow=classic;html=1;rounded=0;strokeColor=default;strokeWidth=2;align=center;verticalAlign=middle;fontFamily=Helvetica;fontSize=12;fontColor=default;labelBackgroundColor=default;" edge="1" parent="1">
          <mxGeometry width="50" height="50" relative="1" as="geometry">
            <mxPoint x="400" y="290" as="sourcePoint" />
            <mxPoint x="190" y="290" as="targetPoint" />
          </mxGeometry>
        </mxCell>
        <mxCell id="6kd7-zX1zpFKHx_h584w-32" value="&lt;font style=&quot;font-size: 14px;&quot;&gt;&lt;b&gt;2.&amp;nbsp;&lt;/b&gt;&lt;/font&gt;&lt;b style=&quot;font-size: 14px;&quot;&gt;Piejamie līmeņi&lt;/b&gt;" style="text;html=1;align=center;verticalAlign=middle;resizable=0;points=[];autosize=1;strokeColor=none;fillColor=none;fontFamily=Helvetica;fontSize=12;fontColor=default;labelBackgroundColor=default;" vertex="1" parent="1">
          <mxGeometry x="227.5" y="260" width="140" height="30" as="geometry" />
        </mxCell>
        <mxCell id="6kd7-zX1zpFKHx_h584w-33" value="&lt;font style=&quot;font-size: 14px;&quot;&gt;&lt;b&gt;6.&amp;nbsp;&lt;/b&gt;&lt;/font&gt;&lt;b style=&quot;font-size: 14px;&quot;&gt;Visi dati par līmeni&lt;/b&gt;" style="text;html=1;align=center;verticalAlign=middle;resizable=0;points=[];autosize=1;strokeColor=none;fillColor=none;fontFamily=Helvetica;fontSize=12;fontColor=default;labelBackgroundColor=default;" vertex="1" parent="1">
          <mxGeometry x="210" y="408" width="160" height="30" as="geometry" />
        </mxCell>
        <mxCell id="6kd7-zX1zpFKHx_h584w-35" value="" style="endArrow=none;dashed=1;html=1;rounded=0;fontFamily=Helvetica;fontSize=12;fontColor=default;entryX=0.5;entryY=1;entryDx=0;entryDy=0;" edge="1" parent="1" source="6kd7-zX1zpFKHx_h584w-24" target="6kd7-zX1zpFKHx_h584w-34">
          <mxGeometry width="50" height="50" relative="1" as="geometry">
            <mxPoint x="420" y="540" as="sourcePoint" />
            <mxPoint x="420" y="283" as="targetPoint" />
          </mxGeometry>
        </mxCell>
        <mxCell id="6kd7-zX1zpFKHx_h584w-34" value="" style="rounded=1;whiteSpace=wrap;html=1;strokeColor=default;strokeWidth=2;align=center;verticalAlign=middle;fontFamily=Helvetica;fontSize=12;fontColor=default;fillColor=default;" vertex="1" parent="1">
          <mxGeometry x="402.5" y="398" width="35" height="45" as="geometry" />
        </mxCell>
        <mxCell id="6kd7-zX1zpFKHx_h584w-36" value="" style="endArrow=classic;html=1;rounded=0;strokeColor=default;strokeWidth=2;align=center;verticalAlign=middle;fontFamily=Helvetica;fontSize=12;fontColor=default;labelBackgroundColor=default;" edge="1" parent="1">
          <mxGeometry width="50" height="50" relative="1" as="geometry">
            <mxPoint x="200" y="560" as="sourcePoint" />
            <mxPoint x="390" y="560" as="targetPoint" />
          </mxGeometry>
        </mxCell>
        <mxCell id="6kd7-zX1zpFKHx_h584w-37" value="" style="endArrow=classic;html=1;rounded=0;strokeColor=default;strokeWidth=2;align=center;verticalAlign=middle;fontFamily=Helvetica;fontSize=12;fontColor=default;labelBackgroundColor=default;" edge="1" parent="1">
          <mxGeometry width="50" height="50" relative="1" as="geometry">
            <mxPoint x="390" y="570" as="sourcePoint" />
            <mxPoint x="200" y="570" as="targetPoint" />
          </mxGeometry>
        </mxCell>
        <mxCell id="6kd7-zX1zpFKHx_h584w-38" value="&lt;b&gt;&lt;font style=&quot;font-size: 14px;&quot;&gt;9. spēles dati&lt;/font&gt;&lt;/b&gt;" style="text;html=1;align=center;verticalAlign=middle;resizable=0;points=[];autosize=1;strokeColor=none;fillColor=none;fontFamily=Helvetica;fontSize=12;fontColor=default;labelBackgroundColor=default;" vertex="1" parent="1">
          <mxGeometry x="225" y="528" width="110" height="30" as="geometry" />
        </mxCell>
        <mxCell id="6kd7-zX1zpFKHx_h584w-39" value="" style="edgeStyle=none;orthogonalLoop=1;jettySize=auto;html=1;rounded=0;strokeColor=default;strokeWidth=2;align=center;verticalAlign=middle;fontFamily=Helvetica;fontSize=12;fontColor=default;labelBackgroundColor=default;endArrow=classic;" edge="1" parent="1">
          <mxGeometry width="100" relative="1" as="geometry">
            <mxPoint x="430" y="600" as="sourcePoint" />
            <mxPoint x="640" y="600" as="targetPoint" />
            <Array as="points" />
          </mxGeometry>
        </mxCell>
        <mxCell id="6kd7-zX1zpFKHx_h584w-40" value="&lt;b&gt;&lt;font style=&quot;font-size: 14px;&quot;&gt;10. saglabā punktus&lt;/font&gt;&lt;/b&gt;" style="text;html=1;align=center;verticalAlign=middle;resizable=0;points=[];autosize=1;strokeColor=none;fillColor=none;fontFamily=Helvetica;fontSize=12;fontColor=default;labelBackgroundColor=default;" vertex="1" parent="1">
          <mxGeometry x="440" y="568" width="160" height="30" as="geometry" />
        </mxCell>
      </root>
    </mxGraphModel>
  </diagram>
</mxfile>
